PathFileType	4	(X/Y/Z)	 2.5Hzhigh3min.trc
DataRate	CameraRate	NumFrames	NumMarkers	Units	OrigDataRate	OrigDataStartFrame	OrigNumFrames
200	200	10	35	m	200	376	1000
Frame#	Time	C7			LSH			RSH			MAN			RASI			LASI			HIPR			HIPL			RPSI			LPSI			COX			RTHI1			RTHI2			RTHI3			RTHI4			RSHA1			RSHA2			RSHA3			RSHA4			RHEEL			RMET5			RMET1			RTOE			LTHI1			LTHI2			LTHI3			LTHI4			LSHA1			LSHA2			LSHA3			LSHA4			LHEEL			LMET5			LMET1			LTOE			
		X1	Y1	Z1	X2	Y2	Z2	X3	Y3	Z3	X4	Y4	Z4	X5	Y5	Z5	X6	Y6	Z6	X7	Y7	Z7	X8	Y8	Z8	X9	Y9	Z9	X10	Y10	Z10	X11	Y11	Z11	X12	Y12	Z12	X13	Y13	Z13	X14	Y14	Z14	X15	Y15	Z15	X16	Y16	Z16	X17	Y17	Z17	X18	Y18	Z18	X19	Y19	Z19	X20	Y20	Z20	X21	Y21	Z21	X22	Y22	Z22	X23	Y23	Z23	X24	Y24	Z24	X25	Y25	Z25	X26	Y26	Z26	X27	Y27	Z27	X28	Y28	Z28	X29	Y29	Z29	X30	Y30	Z30	X31	Y31	Z31	X32	Y32	Z32	X33	Y33	Z33	X34	Y34	Z34	X35	Y35	Z35	
376	1.8800	-0.312414	1.338909	-0.539173	-0.261081	1.315941	-0.710888	-0.283100	1.326465	-0.364062	-0.192671	1.301926	-0.532281	-0.171333	0.910891	-0.439633	-0.163485	0.912791	-0.624084	-0.243753	0.949149	-0.397218	-0.231548	0.951749	-0.665452	-0.319302	0.935750	-0.473491	-0.314696	0.937512	-0.586212	-0.320156	0.949942	-0.533183	-0.251265	0.735334	-0.361447	-0.227394	0.680584	-0.357595	-0.167184	0.701560	-0.369055	-0.183234	0.760727	-0.373069	-0.248569	0.313717	-0.348399	-0.274298	0.278109	-0.348621	-0.225585	0.250479	-0.371995	-0.205460	0.285780	-0.374082	-0.405872	0.093084	-0.405518	-0.261507	0.030574	-0.339135	-0.227113	0.031466	-0.414255	-0.201457	0.023970	-0.404322	-0.229104	0.700813	-0.707921	-0.205643	0.643775	-0.707857	-0.145220	0.662141	-0.692163	-0.160975	0.719793	-0.691350	-0.279923	0.288496	-0.700790	-0.301135	0.254338	-0.696341	-0.244023	0.227528	-0.691168	-0.229716	0.269041	-0.697557	-0.389929	0.089343	-0.637479	-0.243319	0.023851	-0.698550	-0.208428	0.034100	-0.622274	-0.184706	0.024201	-0.629243	
377	1.8850	-0.312043	1.336439	-0.539446	-0.260242	1.313074	-0.711273	-0.282822	1.323856	-0.364095	-0.192042	1.299075	-0.532298	-0.170851	0.908083	-0.439097	-0.163128	0.910382	-0.623915	-0.243942	0.945683	-0.396648	-0.231609	0.949081	-0.665848	-0.319184	0.933136	-0.473115	-0.314622	0.935429	-0.585884	-0.319996	0.947713	-0.532763	-0.251719	0.733038	-0.361598	-0.227818	0.678336	-0.357471	-0.167538	0.699372	-0.368310	-0.183604	0.758533	-0.372486	-0.248983	0.311390	-0.348302	-0.274671	0.275788	-0.348837	-0.225861	0.248170	-0.372061	-0.205672	0.283436	-0.373919	-0.406627	0.091151	-0.406702	-0.262041	0.030290	-0.339167	-0.227093	0.031419	-0.414383	-0.201360	0.023956	-0.404236	-0.229846	0.699140	-0.707944	-0.206498	0.642049	-0.708189	-0.145869	0.660294	-0.693119	-0.161515	0.717972	-0.692050	-0.281075	0.286537	-0.699641	-0.302249	0.252420	-0.694857	-0.245098	0.225573	-0.690563	-0.230866	0.267053	-0.697171	-0.390461	0.087437	-0.634974	-0.243791	0.023924	-0.698146	-0.208262	0.033996	-0.622101	-0.184469	0.024130	-0.629308	
378	1.8900	-0.311704	1.334664	-0.539704	-0.259379	1.310750	-0.711679	-0.282584	1.321840	-0.364098	-0.191472	1.296913	-0.532320	-0.170290	0.906065	-0.438631	-0.162702	0.908873	-0.623611	-0.243898	0.943203	-0.396102	-0.231409	0.947595	-0.666076	-0.318860	0.931377	-0.472741	-0.314413	0.934109	-0.585502	-0.319729	0.946198	-0.532313	-0.252179	0.731497	-0.361878	-0.228346	0.676801	-0.357420	-0.167960	0.697802	-0.367560	-0.183937	0.756975	-0.371981	-0.249666	0.309453	-0.348191	-0.275303	0.274006	-0.348963	-0.226315	0.246427	-0.371980	-0.206113	0.281659	-0.373622	-0.407227	0.089561	-0.407849	-0.262516	0.030066	-0.339208	-0.227074	0.031389	-0.414479	-0.201286	0.023950	-0.404137	-0.230614	0.698070	-0.707912	-0.207419	0.640910	-0.708410	-0.146583	0.659010	-0.693956	-0.162085	0.716722	-0.692687	-0.282438	0.285105	-0.698370	-0.303516	0.250990	-0.693252	-0.246299	0.224166	-0.689935	-0.232203	0.265640	-0.696740	-0.390799	0.085917	-0.632485	-0.244263	0.024009	-0.697712	-0.208035	0.033919	-0.621958	-0.184209	0.024079	-0.629412	
379	1.8950	-0.311412	1.333583	-0.539935	-0.258557	1.309038	-0.712090	-0.282364	1.320477	-0.364073	-0.190988	1.295457	-0.532342	-0.169650	0.904900	-0.438258	-0.162232	0.908271	-0.623227	-0.243568	0.941798	-0.395607	-0.230974	0.947270	-0.666103	-0.318370	0.930427	-0.472375	-0.314097	0.933483	-0.585104	-0.319388	0.945378	-0.531870	-0.252613	0.730702	-0.362223	-0.228921	0.675988	-0.357419	-0.168400	0.696871	-0.366833	-0.184211	0.756075	-0.371537	-0.250613	0.308051	-0.348065	-0.276170	0.272824	-0.349000	-0.226943	0.245296	-0.371751	-0.206771	0.280524	-0.373204	-0.407658	0.088358	-0.408898	-0.262924	0.029896	-0.339247	-0.227050	0.031371	-0.414538	-0.201230	0.023948	-0.404038	-0.231388	0.697624	-0.707814	-0.208378	0.640381	-0.708508	-0.147345	0.658314	-0.694657	-0.162665	0.716061	-0.693255	-0.283913	0.284235	-0.697079	-0.304856	0.250090	-0.691649	-0.247571	0.223346	-0.689325	-0.233635	0.264832	-0.696291	-0.390960	0.084823	-0.630160	-0.244711	0.024094	-0.697281	-0.207774	0.033866	-0.621848	-0.183951	0.024048	-0.629537	
380	1.9000	-0.311175	1.333193	-0.540130	-0.257819	1.307979	-0.712493	-0.282144	1.319807	-0.364028	-0.190584	1.294739	-0.532370	-0.168941	0.904623	-0.437990	-0.161743	0.908530	-0.622827	-0.242928	0.941491	-0.395180	-0.230377	0.947960	-0.665924	-0.317757	0.930235	-0.472027	-0.313696	0.933489	-0.584710	-0.318987	0.945195	-0.531453	-0.252994	0.730652	-0.362588	-0.229498	0.675898	-0.357442	-0.168831	0.696608	-0.366144	-0.184413	0.755846	-0.371142	-0.251780	0.307277	-0.347925	-0.277237	0.272256	-0.348983	-0.227724	0.244806	-0.371396	-0.207621	0.280039	-0.372686	-0.407910	0.087582	-0.409820	-0.263247	0.029788	-0.339287	-0.227020	0.031361	-0.414559	-0.201192	0.023949	-0.403943	-0.232143	0.697810	-0.707638	-0.209358	0.640475	-0.708481	-0.148126	0.658211	-0.695216	-0.163224	0.716010	-0.693739	-0.285407	0.283936	-0.695856	-0.306192	0.249737	-0.690159	-0.248842	0.223119	-0.688784	-0.235081	0.264628	-0.695865	-0.390965	0.084186	-0.628125	-0.245108	0.024166	-0.696877	-0.207504	0.033832	-0.621771	-0.183713	0.024031	-0.629667	
381	1.9050	-0.311014	1.333496	-0.540272	-0.257232	1.307624	-0.712859	-0.281908	1.319865	-0.363974	-0.190265	1.294780	-0.532405	-0.168181	0.905233	-0.437814	-0.161244	0.909571	-0.622471	-0.242001	0.942207	-0.394845	-0.229720	0.949456	-0.665545	-0.317061	0.930734	-0.471693	-0.313227	0.934087	-0.584326	-0.318514	0.945633	-0.531049	-0.253311	0.731332	-0.362919	-0.230058	0.676512	-0.357464	-0.169238	0.697005	-0.365507	-0.184559	0.756286	-0.370785	-0.253090	0.307214	-0.347803	-0.278450	0.272322	-0.348916	-0.228621	0.244968	-0.370939	-0.208626	0.280230	-0.372103	-0.407979	0.087254	-0.410583	-0.263483	0.029736	-0.339326	-0.226984	0.031360	-0.414543	-0.201168	0.023952	-0.403858	-0.232852	0.698630	-0.707381	-0.210318	0.641188	-0.708345	-0.148896	0.658705	-0.695629	-0.163740	0.716563	-0.694120	-0.286853	0.284188	-0.694794	-0.307459	0.249927	-0.688881	-0.250040	0.223480	-0.688343	-0.236463	0.265009	-0.695499	-0.390821	0.084029	-0.626474	-0.245429	0.024225	-0.696525	-0.207238	0.033819	-0.621732	-0.183507	0.024028	-0.629792	
382	1.9100	-0.310938	1.334489	-0.540346	-0.256855	1.308028	-0.713165	-0.281654	1.320676	-0.363896	-0.190011	1.295604	-0.532458	-0.167378	0.906673	-0.437713	-0.160738	0.911310	-0.622193	-0.240887	0.943809	-0.394604	-0.229095	0.951544	-0.665012	-0.316303	0.931877	-0.471359	-0.312688	0.935246	-0.583933	-0.317994	0.946704	-0.530668	-0.253562	0.732735	-0.363172	-0.230589	0.677817	-0.357470	-0.169618	0.698058	-0.364938	-0.184652	0.757391	-0.370450	-0.254533	0.307796	-0.347662	-0.279765	0.272971	-0.348828	-0.229599	0.245762	-0.370411	-0.209747	0.281085	-0.371477	-0.407871	0.087376	-0.411149	-0.263631	0.029734	-0.339367	-0.226936	0.031364	-0.414491	-0.201155	0.023955	-0.403783	-0.233476	0.700077	-0.707052	-0.211220	0.642530	-0.708124	-0.149620	0.659787	-0.695893	-0.164179	0.717712	-0.694381	-0.288195	0.284987	-0.693963	-0.308611	0.250633	-0.687887	-0.251117	0.224402	-0.688033	-0.237739	0.265963	-0.695223	-0.390551	0.084377	-0.625290	-0.245662	0.024271	-0.696232	-0.206990	0.033826	-0.621736	-0.183339	0.024036	-0.629906	
383	1.9150	-0.310943	1.336154	-0.540348	-0.256715	1.309207	-0.713396	-0.281387	1.322235	-0.363801	-0.189828	1.297205	-0.532535	-0.166554	0.908863	-0.437651	-0.160212	0.913672	-0.621995	-0.239680	0.946159	-0.394458	-0.228560	0.954045	-0.664418	-0.315498	0.933624	-0.471018	-0.312079	0.936951	-0.583526	-0.317450	0.948374	-0.530310	-0.253759	0.734825	-0.363326	-0.231092	0.679795	-0.357454	-0.169976	0.699751	-0.364437	-0.184707	0.759144	-0.370129	-0.256076	0.309049	-0.347474	-0.281125	0.274164	-0.348710	-0.230620	0.247150	-0.369844	-0.210949	0.282570	-0.370829	-0.407586	0.087954	-0.411513	-0.263688	0.029787	-0.339409	-0.226867	0.031373	-0.414403	-0.201147	0.023959	-0.403721	-0.233979	0.702128	-0.706670	-0.212020	0.644481	-0.707846	-0.150260	0.661442	-0.696016	-0.164512	0.719438	-0.694515	-0.289427	0.286282	-0.693392	-0.309638	0.251817	-0.687219	-0.252058	0.225868	-0.687879	-0.238889	0.267464	-0.695063	-0.390155	0.085235	-0.624602	-0.245806	0.024301	-0.696010	-0.206776	0.033853	-0.621791	-0.183216	0.024050	-0.630009	
384	1.9200	-0.311036	1.338444	-0.540286	-0.256795	1.311118	-0.713551	-0.281106	1.324521	-0.363696	-0.189720	1.299556	-0.532639	-0.165715	0.911710	-0.437606	-0.159658	0.916593	-0.621860	-0.238472	0.949134	-0.394387	-0.228135	0.956860	-0.663841	-0.314650	0.935947	-0.470668	-0.311400	0.939195	-0.583092	-0.316866	0.950603	-0.529951	-0.253906	0.737579	-0.363387	-0.231577	0.682417	-0.357409	-0.170318	0.702048	-0.364002	-0.184729	0.761507	-0.369830	-0.257668	0.310876	-0.347239	-0.282489	0.275842	-0.348574	-0.231653	0.249094	-0.369260	-0.212200	0.284625	-0.370173	-0.407126	0.088988	-0.411708	-0.263656	0.029906	-0.339450	-0.226788	0.031392	-0.414289	-0.201144	0.023964	-0.403668	-0.234327	0.704760	-0.706264	-0.212683	0.647015	-0.707533	-0.150777	0.663649	-0.696002	-0.164702	0.721724	-0.694518	-0.290556	0.288039	-0.693087	-0.310545	0.253456	-0.686875	-0.252859	0.227844	-0.687896	-0.239922	0.269478	-0.695038	-0.389633	0.086579	-0.624411	-0.245857	0.024321	-0.695861	-0.206595	0.033903	-0.621903	-0.183137	0.024066	-0.630104	
385	1.9250	-0.311184	1.341350	-0.540174	-0.257088	1.313733	-0.713630	-0.280796	1.327501	-0.363581	-0.189683	1.302614	-0.532768	-0.164869	0.915128	-0.437553	-0.159060	0.920027	-0.621755	-0.237327	0.952617	-0.394354	-0.227803	0.959967	-0.663343	-0.313765	0.938805	-0.470311	-0.310651	0.941970	-0.582622	-0.316224	0.953376	-0.529583	-0.254009	0.740951	-0.363365	-0.232055	0.685630	-0.357337	-0.170648	0.704899	-0.363624	-0.184719	0.764437	-0.369545	-0.259277	0.313202	-0.346948	-0.283824	0.277979	-0.348380	-0.232664	0.251553	-0.368671	-0.213458	0.287225	-0.369510	-0.406487	0.090459	-0.411759	-0.263547	0.030082	-0.339481	-0.226702	0.031421	-0.414150	-0.201145	0.023968	-0.403621	-0.234493	0.707944	-0.705889	-0.213169	0.650099	-0.707220	-0.151146	0.666391	-0.695859	-0.164741	0.724538	-0.694383	-0.291599	0.290245	-0.693040	-0.311351	0.255527	-0.686837	-0.253535	0.230302	-0.688089	-0.240847	0.271992	-0.695159	-0.388974	0.088402	-0.624675	-0.245821	0.024338	-0.695781	-0.206443	0.033984	-0.622079	-0.183099	0.024088	-0.630200	
